<?xml version="1.0" encoding="UTF-8" standalone="no"?>
<!DOCTYPE svg PUBLIC "-//W3C//DTD SVG 1.0//EN" "http://www.w3.org/TR/2001/PR-SVG-20010719/DTD/svg10.dtd">
<svg width="15cm" height="8cm" viewBox="345 52 297 143" xmlns="http://www.w3.org/2000/svg" xmlns:xlink="http://www.w3.org/1999/xlink">
  <g>
    <line style="fill: none; fill-opacity:0; stroke-width: 1.6; stroke: #000000" x1="396.166" y1="89.4846" x2="423.14" y2="111.32"/>
    <polygon style="fill: #000000" points="392.668,86.6533 399.22,88.0966 396.166,89.4846 395.444,92.7602 "/>
    <polygon style="fill: none; fill-opacity:0; stroke-width: 1.6; stroke: #000000" points="392.668,86.6533 399.22,88.0966 396.166,89.4846 395.444,92.7602 "/>
    <polygon style="fill: #000000" points="426.638,114.151 420.086,112.708 423.14,111.32 423.862,108.044 "/>
    <polygon style="fill: none; fill-opacity:0; stroke-width: 1.6; stroke: #000000" points="426.638,114.151 420.086,112.708 423.14,111.32 423.862,108.044 "/>
  </g>
  <g>
    <line style="fill: none; fill-opacity:0; stroke-width: 1.6; stroke: #000000" x1="396.104" y1="158.134" x2="423.202" y2="135.49"/>
    <polygon style="fill: #000000" points="392.651,161.02 395.331,154.87 396.104,158.134 399.178,159.474 "/>
    <polygon style="fill: none; fill-opacity:0; stroke-width: 1.6; stroke: #000000" points="392.651,161.02 395.331,154.87 396.104,158.134 399.178,159.474 "/>
    <polygon style="fill: #000000" points="426.655,132.604 423.975,138.753 423.202,135.49 420.128,134.149 "/>
    <polygon style="fill: none; fill-opacity:0; stroke-width: 1.6; stroke: #000000" points="426.655,132.604 423.975,138.753 423.202,135.49 420.128,134.149 "/>
  </g>
  <g>
    <line style="fill: none; fill-opacity:0; stroke-width: 1.6; stroke: #000000" x1="591.294" y1="158.084" x2="563.662" y2="134.506"/>
    <polygon style="fill: #000000" points="594.717,161.005 588.206,159.393 591.294,158.084 592.1,154.829 "/>
    <polygon style="fill: none; fill-opacity:0; stroke-width: 1.6; stroke: #000000" points="594.717,161.005 588.206,159.393 591.294,158.084 592.1,154.829 "/>
    <polygon style="fill: #000000" points="560.239,131.585 566.75,133.197 563.662,134.506 562.856,137.761 "/>
    <polygon style="fill: none; fill-opacity:0; stroke-width: 1.6; stroke: #000000" points="560.239,131.585 566.75,133.197 563.662,134.506 562.856,137.761 "/>
  </g>
  <g>
    <line style="fill: none; fill-opacity:0; stroke-width: 1.6; stroke: #000000" x1="591.1" y1="89.3706" x2="563.856" y2="110.4"/>
    <polygon style="fill: #000000" points="594.662,86.6209 591.746,92.6619 591.1,89.3706 588.079,87.9123 "/>
    <polygon style="fill: none; fill-opacity:0; stroke-width: 1.6; stroke: #000000" points="594.662,86.6209 591.746,92.6619 591.1,89.3706 588.079,87.9123 "/>
    <polygon style="fill: #000000" points="560.294,113.15 563.21,107.109 563.856,110.4 566.877,111.858 "/>
    <polygon style="fill: none; fill-opacity:0; stroke-width: 1.6; stroke: #000000" points="560.294,113.15 563.21,107.109 563.856,110.4 566.877,111.858 "/>
  </g>
  <g>
    <line style="fill: none; fill-opacity:0; stroke-width: 1.6; stroke: #000000" x1="478.926" y1="141.437" x2="590.08" y2="176.457"/>
    <polygon style="fill: #000000" points="474.634,140.085 481.258,139.026 478.926,141.437 479.455,144.749 "/>
    <polygon style="fill: none; fill-opacity:0; stroke-width: 1.6; stroke: #000000" points="474.634,140.085 481.258,139.026 478.926,141.437 479.455,144.749 "/>
    <polygon style="fill: #000000" points="594.372,177.81 587.748,178.868 590.08,176.457 589.551,173.145 "/>
    <polygon style="fill: none; fill-opacity:0; stroke-width: 1.6; stroke: #000000" points="594.372,177.81 587.748,178.868 590.08,176.457 589.551,173.145 "/>
  </g>
  <g>
    <line style="fill: none; fill-opacity:0; stroke-width: 1.6; stroke: #000000" x1="507.996" y1="140.456" x2="397.26" y2="176.405"/>
    <polygon style="fill: #000000" points="512.277,139.066 507.496,143.772 507.996,140.456 505.643,138.065 "/>
    <polygon style="fill: none; fill-opacity:0; stroke-width: 1.6; stroke: #000000" points="512.277,139.066 507.496,143.772 507.996,140.456 505.643,138.065 "/>
    <polygon style="fill: #000000" points="392.979,177.795 397.76,173.089 397.26,176.405 399.613,178.796 "/>
    <polygon style="fill: none; fill-opacity:0; stroke-width: 1.6; stroke: #000000" points="392.979,177.795 397.76,173.089 397.26,176.405 399.613,178.796 "/>
  </g>
  <g>
    <line style="fill: none; fill-opacity:0; stroke-width: 1.6; stroke: #000000" x1="478.939" y1="105.339" x2="590.067" y2="71.1943"/>
    <polygon style="fill: #000000" points="474.638,106.661 479.492,102.031 478.939,105.339 481.254,107.766 "/>
    <polygon style="fill: none; fill-opacity:0; stroke-width: 1.6; stroke: #000000" points="474.638,106.661 479.492,102.031 478.939,105.339 481.254,107.766 "/>
    <polygon style="fill: #000000" points="594.368,69.8726 589.514,74.5025 590.067,71.1943 587.752,68.7672 "/>
    <polygon style="fill: none; fill-opacity:0; stroke-width: 1.6; stroke: #000000" points="594.368,69.8726 589.514,74.5025 590.067,71.1943 587.752,68.7672 "/>
  </g>
  <g>
    <rect style="fill: #ffffff" x="513.978" y="106.153" width="44.9" height="32.3611"/>
    <rect style="fill: none; fill-opacity:0; stroke-width: 1.6; stroke: #000000" x="513.978" y="106.153" width="44.9" height="32.3611"/>
    <text font-size="6.20889" style="fill: #000000;text-anchor:middle;font-family:sans-serif;font-style:normal;font-weight:normal" x="536.428" y="124.253">
      <tspan x="536.428" y="124.253">Server</tspan>
    </text>
  </g>
  <g>
    <rect style="fill: #ffffff" x="428.028" y="107.186" width="44.9" height="32.3611"/>
    <rect style="fill: none; fill-opacity:0; stroke-width: 1.6; stroke: #000000" x="428.028" y="107.186" width="44.9" height="32.3611"/>
    <text font-size="6.20889" style="fill: #000000;text-anchor:middle;font-family:sans-serif;font-style:normal;font-weight:normal" x="450.478" y="125.286">
      <tspan x="450.478" y="125.286">Server</tspan>
    </text>
  </g>
  <g>
    <line style="fill: none; fill-opacity:0; stroke-width: 1.6; stroke: #000000" x1="397.302" y1="71.1541" x2="507.954" y2="104.346"/>
    <polygon style="fill: #000000" points="392.991,69.8612 399.6,68.7116 397.302,71.1541 397.876,74.4586 "/>
    <polygon style="fill: none; fill-opacity:0; stroke-width: 1.6; stroke: #000000" points="392.991,69.8612 399.6,68.7116 397.302,71.1541 397.876,74.4586 "/>
    <polygon style="fill: #000000" points="512.265,105.639 505.656,106.788 507.954,104.346 507.38,101.041 "/>
    <polygon style="fill: none; fill-opacity:0; stroke-width: 1.6; stroke: #000000" points="512.265,105.639 505.656,106.788 507.954,104.346 507.38,101.041 "/>
  </g>
  <g>
    <rect style="fill: #ffffff" x="346.378" y="53.1666" width="44.9" height="32.3611"/>
    <rect style="fill: none; fill-opacity:0; stroke-width: 1.6; stroke: #000000" x="346.378" y="53.1666" width="44.9" height="32.3611"/>
    <text font-size="6.20889" style="fill: #000000;text-anchor:middle;font-family:sans-serif;font-style:normal;font-weight:normal" x="368.828" y="71.2666">
      <tspan x="368.828" y="71.2666">Client</tspan>
    </text>
  </g>
  <g>
    <rect style="fill: #ffffff" x="596.078" y="162.167" width="44.9" height="32.3611"/>
    <rect style="fill: none; fill-opacity:0; stroke-width: 1.6; stroke: #000000" x="596.078" y="162.167" width="44.9" height="32.3611"/>
    <text font-size="6.20889" style="fill: #000000;text-anchor:middle;font-family:sans-serif;font-style:normal;font-weight:normal" x="618.528" y="180.267">
      <tspan x="618.528" y="180.267">Client</tspan>
    </text>
  </g>
  <g>
    <rect style="fill: #ffffff" x="346.378" y="162.167" width="44.9" height="32.3611"/>
    <rect style="fill: none; fill-opacity:0; stroke-width: 1.6; stroke: #000000" x="346.378" y="162.167" width="44.9" height="32.3611"/>
    <text font-size="6.20889" style="fill: #000000;text-anchor:middle;font-family:sans-serif;font-style:normal;font-weight:normal" x="368.828" y="180.267">
      <tspan x="368.828" y="180.267">Client</tspan>
    </text>
  </g>
  <g>
    <rect style="fill: #ffffff" x="596.078" y="53.1666" width="44.9" height="32.3611"/>
    <rect style="fill: none; fill-opacity:0; stroke-width: 1.6; stroke: #000000" x="596.078" y="53.1666" width="44.9" height="32.3611"/>
    <text font-size="6.20889" style="fill: #000000;text-anchor:middle;font-family:sans-serif;font-style:normal;font-weight:normal" x="618.528" y="71.2666">
      <tspan x="618.528" y="71.2666">Client</tspan>
    </text>
  </g>
</svg>
