<?xml version="1.0" encoding="UTF-8"?>
<svg xmlns="http://www.w3.org/2000/svg" xmlns:xlink="http://www.w3.org/1999/xlink" width="278pt" height="143pt" viewBox="0 0 278 143" version="1.1">
<g id="surface490209">
<rect x="0" y="0" width="278" height="143" style="fill:rgb(100%,100%,100%);fill-opacity:1;stroke:none;"/>
<path style="fill-rule:evenodd;fill:rgb(0%,0%,0%);fill-opacity:1;stroke-width:0.1;stroke-linecap:butt;stroke-linejoin:miter;stroke:rgb(0%,0%,0%);stroke-opacity:1;stroke-miterlimit:10;" d="M 19.807145 12.820619 C 19.807145 13.124721 19.350895 13.124721 19.350895 12.820619 C 19.350895 12.516517 19.807145 12.516517 19.807145 12.820619 " transform="matrix(20,0,0,20,-355.369459,-205.474879)"/>
<path style="fill:none;stroke-width:0.1;stroke-linecap:butt;stroke-linejoin:miter;stroke:rgb(0%,0%,0%);stroke-opacity:1;stroke-miterlimit:10;" d="M 19.807145 12.820619 C 19.807145 13.124721 19.350895 13.124721 19.350895 12.820619 C 19.350895 12.516517 19.807145 12.516517 19.807145 12.820619 " transform="matrix(20,0,0,20,-355.369459,-205.474879)"/>
<path style="fill-rule:evenodd;fill:rgb(100%,0%,0%);fill-opacity:1;stroke-width:0.1;stroke-linecap:butt;stroke-linejoin:miter;stroke:rgb(100%,0%,0%);stroke-opacity:1;stroke-miterlimit:10;" d="M 21.001676 15.035658 C 21.001676 15.33976 20.545426 15.33976 20.545426 15.035658 C 20.545426 14.731361 21.001676 14.731361 21.001676 15.035658 " transform="matrix(20,0,0,20,-355.369459,-205.474879)"/>
<path style="fill:none;stroke-width:0.1;stroke-linecap:butt;stroke-linejoin:miter;stroke:rgb(100%,0%,0%);stroke-opacity:1;stroke-miterlimit:10;" d="M 21.001676 15.035658 C 21.001676 15.33976 20.545426 15.33976 20.545426 15.035658 C 20.545426 14.731361 21.001676 14.731361 21.001676 15.035658 " transform="matrix(20,0,0,20,-355.369459,-205.474879)"/>
<path style="fill-rule:evenodd;fill:rgb(0%,0%,0%);fill-opacity:1;stroke-width:0.1;stroke-linecap:butt;stroke-linejoin:miter;stroke:rgb(0%,0%,0%);stroke-opacity:1;stroke-miterlimit:10;" d="M 22.097184 12.820619 C 22.097184 13.124721 21.640934 13.124721 21.640934 12.820619 C 21.640934 12.516517 22.097184 12.516517 22.097184 12.820619 " transform="matrix(20,0,0,20,-355.369459,-205.474879)"/>
<path style="fill:none;stroke-width:0.1;stroke-linecap:butt;stroke-linejoin:miter;stroke:rgb(0%,0%,0%);stroke-opacity:1;stroke-miterlimit:10;" d="M 22.097184 12.820619 C 22.097184 13.124721 21.640934 13.124721 21.640934 12.820619 C 21.640934 12.516517 22.097184 12.516517 22.097184 12.820619 " transform="matrix(20,0,0,20,-355.369459,-205.474879)"/>
<path style="fill:none;stroke-width:0.1;stroke-linecap:butt;stroke-linejoin:miter;stroke:rgb(0%,0%,0%);stroke-opacity:1;stroke-miterlimit:10;" d="M 19.711246 13.065541 L 20.641324 14.790736 " transform="matrix(20,0,0,20,-355.369459,-205.474879)"/>
<path style="fill:none;stroke-width:0.1;stroke-linecap:butt;stroke-linejoin:miter;stroke:rgb(0%,0%,0%);stroke-opacity:1;stroke-miterlimit:10;" d="M 19.856949 12.820619 L 21.591324 12.820619 " transform="matrix(20,0,0,20,-355.369459,-205.474879)"/>
<path style="fill:none;stroke-width:0.1;stroke-linecap:butt;stroke-linejoin:miter;stroke:rgb(0%,0%,0%);stroke-opacity:1;stroke-miterlimit:10;" d="M 21.745817 13.069838 L 20.896793 14.786244 " transform="matrix(20,0,0,20,-355.369459,-205.474879)"/>
<path style="fill-rule:evenodd;fill:rgb(0%,0%,0%);fill-opacity:1;stroke-width:0.1;stroke-linecap:butt;stroke-linejoin:miter;stroke:rgb(0%,0%,0%);stroke-opacity:1;stroke-miterlimit:10;" d="M 19.839762 17.153041 C 19.839762 17.457338 19.383512 17.457338 19.383512 17.153041 C 19.383512 16.848939 19.839762 16.848939 19.839762 17.153041 " transform="matrix(20,0,0,20,-355.369459,-205.474879)"/>
<path style="fill:none;stroke-width:0.1;stroke-linecap:butt;stroke-linejoin:miter;stroke:rgb(0%,0%,0%);stroke-opacity:1;stroke-miterlimit:10;" d="M 19.839762 17.153041 C 19.839762 17.457338 19.383512 17.457338 19.383512 17.153041 C 19.383512 16.848939 19.839762 16.848939 19.839762 17.153041 " transform="matrix(20,0,0,20,-355.369459,-205.474879)"/>
<path style="fill-rule:evenodd;fill:rgb(0%,0%,0%);fill-opacity:1;stroke-width:0.1;stroke-linecap:butt;stroke-linejoin:miter;stroke:rgb(0%,0%,0%);stroke-opacity:1;stroke-miterlimit:10;" d="M 18.609684 15.035658 C 18.609684 15.33976 18.153434 15.33976 18.153434 15.035658 C 18.153434 14.731361 18.609684 14.731361 18.609684 15.035658 " transform="matrix(20,0,0,20,-355.369459,-205.474879)"/>
<path style="fill:none;stroke-width:0.1;stroke-linecap:butt;stroke-linejoin:miter;stroke:rgb(0%,0%,0%);stroke-opacity:1;stroke-miterlimit:10;" d="M 18.609684 15.035658 C 18.609684 15.33976 18.153434 15.33976 18.153434 15.035658 C 18.153434 14.731361 18.609684 14.731361 18.609684 15.035658 " transform="matrix(20,0,0,20,-355.369459,-205.474879)"/>
<path style="fill-rule:evenodd;fill:rgb(100%,0%,0%);fill-opacity:1;stroke-width:0.1;stroke-linecap:butt;stroke-linejoin:miter;stroke:rgb(100%,0%,0%);stroke-opacity:1;stroke-miterlimit:10;" d="M 23.367301 15.035658 C 23.367301 15.33976 22.911051 15.33976 22.911051 15.035658 C 22.911051 14.731361 23.367301 14.731361 23.367301 15.035658 " transform="matrix(20,0,0,20,-355.369459,-205.474879)"/>
<path style="fill:none;stroke-width:0.1;stroke-linecap:butt;stroke-linejoin:miter;stroke:rgb(100%,0%,0%);stroke-opacity:1;stroke-miterlimit:10;" d="M 23.367301 15.035658 C 23.367301 15.33976 22.911051 15.33976 22.911051 15.035658 C 22.911051 14.731361 23.367301 14.731361 23.367301 15.035658 " transform="matrix(20,0,0,20,-355.369459,-205.474879)"/>
<path style="fill-rule:evenodd;fill:rgb(0%,0%,0%);fill-opacity:1;stroke-width:0.1;stroke-linecap:butt;stroke-linejoin:miter;stroke:rgb(0%,0%,0%);stroke-opacity:1;stroke-miterlimit:10;" d="M 22.224723 17.153041 C 22.224723 17.457338 21.768473 17.457338 21.768473 17.153041 C 21.768473 16.848939 22.224723 16.848939 22.224723 17.153041 " transform="matrix(20,0,0,20,-355.369459,-205.474879)"/>
<path style="fill:none;stroke-width:0.1;stroke-linecap:butt;stroke-linejoin:miter;stroke:rgb(0%,0%,0%);stroke-opacity:1;stroke-miterlimit:10;" d="M 22.224723 17.153041 C 22.224723 17.457338 21.768473 17.457338 21.768473 17.153041 C 21.768473 16.848939 22.224723 16.848939 22.224723 17.153041 " transform="matrix(20,0,0,20,-355.369459,-205.474879)"/>
<path style="fill:none;stroke-width:0.1;stroke-linecap:butt;stroke-linejoin:miter;stroke:rgb(0%,0%,0%);stroke-opacity:1;stroke-miterlimit:10;" d="M 18.513981 14.790736 L 19.446598 13.065541 " transform="matrix(20,0,0,20,-355.369459,-205.474879)"/>
<path style="fill:none;stroke-width:0.1;stroke-linecap:butt;stroke-linejoin:miter;stroke:rgb(0%,0%,0%);stroke-opacity:1;stroke-miterlimit:10;" d="M 22.007535 13.062025 L 23.000699 14.794252 " transform="matrix(20,0,0,20,-355.369459,-205.474879)"/>
<path style="fill:none;stroke-width:0.1;stroke-linecap:butt;stroke-linejoin:miter;stroke:rgb(100%,0%,0%);stroke-opacity:1;stroke-miterlimit:10;" d="M 22.861246 15.035658 L 21.051285 15.035658 " transform="matrix(20,0,0,20,-355.369459,-205.474879)"/>
<path style="fill:none;stroke-width:0.1;stroke-linecap:butt;stroke-linejoin:miter;stroke:rgb(0%,0%,0%);stroke-opacity:1;stroke-miterlimit:10;" d="M 18.659879 15.035658 L 20.495231 15.035658 " transform="matrix(20,0,0,20,-355.369459,-205.474879)"/>
<path style="fill:none;stroke-width:0.1;stroke-linecap:butt;stroke-linejoin:miter;stroke:rgb(0%,0%,0%);stroke-opacity:1;stroke-miterlimit:10;" d="M 19.744449 16.911244 L 20.640739 15.277455 " transform="matrix(20,0,0,20,-355.369459,-205.474879)"/>
<path style="fill:none;stroke-width:0.1;stroke-linecap:butt;stroke-linejoin:miter;stroke:rgb(0%,0%,0%);stroke-opacity:1;stroke-miterlimit:10;" d="M 23.007145 15.280189 L 22.128629 16.90851 " transform="matrix(20,0,0,20,-355.369459,-205.474879)"/>
<path style="fill:none;stroke-width:0.1;stroke-linecap:butt;stroke-linejoin:miter;stroke:rgb(0%,0%,0%);stroke-opacity:1;stroke-miterlimit:10;" d="M 19.889371 17.153041 L 21.718864 17.153041 " transform="matrix(20,0,0,20,-355.369459,-205.474879)"/>
<path style="fill:none;stroke-width:0.1;stroke-linecap:butt;stroke-linejoin:miter;stroke:rgb(0%,0%,0%);stroke-opacity:1;stroke-miterlimit:10;" d="M 18.521207 15.276088 L 19.471989 16.912806 " transform="matrix(20,0,0,20,-355.369459,-205.474879)"/>
<path style="fill:none;stroke-width:0.1;stroke-linecap:butt;stroke-linejoin:miter;stroke:rgb(0%,0%,0%);stroke-opacity:1;stroke-miterlimit:10;" d="M 20.912418 15.276088 L 21.857731 16.912806 " transform="matrix(20,0,0,20,-355.369459,-205.474879)"/>
<path style="fill-rule:evenodd;fill:rgb(0%,0%,0%);fill-opacity:1;stroke-width:0.1;stroke-linecap:butt;stroke-linejoin:miter;stroke:rgb(0%,0%,0%);stroke-opacity:1;stroke-miterlimit:10;" d="M 24.664762 12.789369 C 24.664762 13.093471 24.208512 13.093471 24.208512 12.789369 C 24.208512 12.485267 24.664762 12.485267 24.664762 12.789369 " transform="matrix(20,0,0,20,-355.369459,-205.474879)"/>
<path style="fill:none;stroke-width:0.1;stroke-linecap:butt;stroke-linejoin:miter;stroke:rgb(0%,0%,0%);stroke-opacity:1;stroke-miterlimit:10;" d="M 24.664762 12.789369 C 24.664762 13.093471 24.208512 13.093471 24.208512 12.789369 C 24.208512 12.485267 24.664762 12.485267 24.664762 12.789369 " transform="matrix(20,0,0,20,-355.369459,-205.474879)"/>
<path style="fill-rule:evenodd;fill:rgb(0%,0%,0%);fill-opacity:1;stroke-width:0.1;stroke-linecap:butt;stroke-linejoin:miter;stroke:rgb(0%,0%,0%);stroke-opacity:1;stroke-miterlimit:10;" d="M 24.809684 17.056947 C 24.809684 17.361049 24.353434 17.361049 24.353434 17.056947 C 24.353434 16.75265 24.809684 16.75265 24.809684 17.056947 " transform="matrix(20,0,0,20,-355.369459,-205.474879)"/>
<path style="fill:none;stroke-width:0.1;stroke-linecap:butt;stroke-linejoin:miter;stroke:rgb(0%,0%,0%);stroke-opacity:1;stroke-miterlimit:10;" d="M 24.809684 17.056947 C 24.809684 17.361049 24.353434 17.361049 24.353434 17.056947 C 24.353434 16.75265 24.809684 16.75265 24.809684 17.056947 " transform="matrix(20,0,0,20,-355.369459,-205.474879)"/>
<path style="fill-rule:evenodd;fill:rgb(0%,0%,0%);fill-opacity:1;stroke-width:0.1;stroke-linecap:butt;stroke-linejoin:miter;stroke:rgb(0%,0%,0%);stroke-opacity:1;stroke-miterlimit:10;" d="M 26.054801 14.89933 C 26.054801 15.203431 25.598551 15.203431 25.598551 14.89933 C 25.598551 14.595228 26.054801 14.595228 26.054801 14.89933 " transform="matrix(20,0,0,20,-355.369459,-205.474879)"/>
<path style="fill:none;stroke-width:0.1;stroke-linecap:butt;stroke-linejoin:miter;stroke:rgb(0%,0%,0%);stroke-opacity:1;stroke-miterlimit:10;" d="M 26.054801 14.89933 C 26.054801 15.203431 25.598551 15.203431 25.598551 14.89933 C 25.598551 14.595228 26.054801 14.595228 26.054801 14.89933 " transform="matrix(20,0,0,20,-355.369459,-205.474879)"/>
<path style="fill-rule:evenodd;fill:rgb(100%,0%,0%);fill-opacity:1;stroke-width:0.1;stroke-linecap:butt;stroke-linejoin:miter;stroke:rgb(100%,0%,0%);stroke-opacity:1;stroke-miterlimit:10;" d="M 27.349723 12.704408 C 27.349723 13.00851 26.893473 13.00851 26.893473 12.704408 C 26.893473 12.400111 27.349723 12.400111 27.349723 12.704408 " transform="matrix(20,0,0,20,-355.369459,-205.474879)"/>
<path style="fill:none;stroke-width:0.1;stroke-linecap:butt;stroke-linejoin:miter;stroke:rgb(100%,0%,0%);stroke-opacity:1;stroke-miterlimit:10;" d="M 27.349723 12.704408 C 27.349723 13.00851 26.893473 13.00851 26.893473 12.704408 C 26.893473 12.400111 27.349723 12.400111 27.349723 12.704408 " transform="matrix(20,0,0,20,-355.369459,-205.474879)"/>
<path style="fill-rule:evenodd;fill:rgb(0%,0%,0%);fill-opacity:1;stroke-width:0.1;stroke-linecap:butt;stroke-linejoin:miter;stroke:rgb(0%,0%,0%);stroke-opacity:1;stroke-miterlimit:10;" d="M 28.269645 14.921791 C 28.269645 15.226088 27.813395 15.226088 27.813395 14.921791 C 27.813395 14.617689 28.269645 14.617689 28.269645 14.921791 " transform="matrix(20,0,0,20,-355.369459,-205.474879)"/>
<path style="fill:none;stroke-width:0.1;stroke-linecap:butt;stroke-linejoin:miter;stroke:rgb(0%,0%,0%);stroke-opacity:1;stroke-miterlimit:10;" d="M 28.269645 14.921791 C 28.269645 15.226088 27.813395 15.226088 27.813395 14.921791 C 27.813395 14.617689 28.269645 14.617689 28.269645 14.921791 " transform="matrix(20,0,0,20,-355.369459,-205.474879)"/>
<path style="fill-rule:evenodd;fill:rgb(0%,0%,0%);fill-opacity:1;stroke-width:0.1;stroke-linecap:butt;stroke-linejoin:miter;stroke:rgb(0%,0%,0%);stroke-opacity:1;stroke-miterlimit:10;" d="M 26.939762 17.014369 C 26.939762 17.318471 26.483512 17.318471 26.483512 17.014369 C 26.483512 16.710267 26.939762 16.710267 26.939762 17.014369 " transform="matrix(20,0,0,20,-355.369459,-205.474879)"/>
<path style="fill:none;stroke-width:0.1;stroke-linecap:butt;stroke-linejoin:miter;stroke:rgb(0%,0%,0%);stroke-opacity:1;stroke-miterlimit:10;" d="M 26.939762 17.014369 C 26.939762 17.318471 26.483512 17.318471 26.483512 17.014369 C 26.483512 16.710267 26.939762 16.710267 26.939762 17.014369 " transform="matrix(20,0,0,20,-355.369459,-205.474879)"/>
<path style="fill-rule:evenodd;fill:rgb(100%,0%,0%);fill-opacity:1;stroke-width:0.1;stroke-linecap:butt;stroke-linejoin:miter;stroke:rgb(100%,0%,0%);stroke-opacity:1;stroke-miterlimit:10;" d="M 30.572184 14.919447 C 30.572184 15.223549 30.115934 15.223549 30.115934 14.919447 C 30.115934 14.61515 30.572184 14.61515 30.572184 14.919447 " transform="matrix(20,0,0,20,-355.369459,-205.474879)"/>
<path style="fill:none;stroke-width:0.1;stroke-linecap:butt;stroke-linejoin:miter;stroke:rgb(100%,0%,0%);stroke-opacity:1;stroke-miterlimit:10;" d="M 30.572184 14.919447 C 30.572184 15.223549 30.115934 15.223549 30.115934 14.919447 C 30.115934 14.61515 30.572184 14.61515 30.572184 14.919447 " transform="matrix(20,0,0,20,-355.369459,-205.474879)"/>
<path style="fill-rule:evenodd;fill:rgb(0%,0%,0%);fill-opacity:1;stroke-width:0.1;stroke-linecap:butt;stroke-linejoin:miter;stroke:rgb(0%,0%,0%);stroke-opacity:1;stroke-miterlimit:10;" d="M 29.392301 12.71183 C 29.392301 13.016127 28.936051 13.016127 28.936051 12.71183 C 28.936051 12.407728 29.392301 12.407728 29.392301 12.71183 " transform="matrix(20,0,0,20,-355.369459,-205.474879)"/>
<path style="fill:none;stroke-width:0.1;stroke-linecap:butt;stroke-linejoin:miter;stroke:rgb(0%,0%,0%);stroke-opacity:1;stroke-miterlimit:10;" d="M 29.392301 12.71183 C 29.392301 13.016127 28.936051 13.016127 28.936051 12.71183 C 28.936051 12.407728 29.392301 12.407728 29.392301 12.71183 " transform="matrix(20,0,0,20,-355.369459,-205.474879)"/>
<path style="fill-rule:evenodd;fill:rgb(100%,0%,0%);fill-opacity:1;stroke-width:0.1;stroke-linecap:butt;stroke-linejoin:miter;stroke:rgb(100%,0%,0%);stroke-opacity:1;stroke-miterlimit:10;" d="M 31.637223 12.616908 C 31.637223 12.92101 31.180973 12.92101 31.180973 12.616908 C 31.180973 12.312611 31.637223 12.312611 31.637223 12.616908 " transform="matrix(20,0,0,20,-355.369459,-205.474879)"/>
<path style="fill:none;stroke-width:0.1;stroke-linecap:butt;stroke-linejoin:miter;stroke:rgb(100%,0%,0%);stroke-opacity:1;stroke-miterlimit:10;" d="M 31.637223 12.616908 C 31.637223 12.92101 31.180973 12.92101 31.180973 12.616908 C 31.180973 12.312611 31.637223 12.312611 31.637223 12.616908 " transform="matrix(20,0,0,20,-355.369459,-205.474879)"/>
<path style="fill-rule:evenodd;fill:rgb(100%,0%,0%);fill-opacity:1;stroke-width:0.1;stroke-linecap:butt;stroke-linejoin:miter;stroke:rgb(100%,0%,0%);stroke-opacity:1;stroke-miterlimit:10;" d="M 29.302262 10.551869 C 29.302262 10.855971 28.846012 10.855971 28.846012 10.551869 C 28.846012 10.247767 29.302262 10.247767 29.302262 10.551869 " transform="matrix(20,0,0,20,-355.369459,-205.474879)"/>
<path style="fill:none;stroke-width:0.1;stroke-linecap:butt;stroke-linejoin:miter;stroke:rgb(100%,0%,0%);stroke-opacity:1;stroke-miterlimit:10;" d="M 29.302262 10.551869 C 29.302262 10.855971 28.846012 10.855971 28.846012 10.551869 C 28.846012 10.247767 29.302262 10.247767 29.302262 10.551869 " transform="matrix(20,0,0,20,-355.369459,-205.474879)"/>
<path style="fill:none;stroke-width:0.1;stroke-linecap:butt;stroke-linejoin:miter;stroke:rgb(0%,0%,0%);stroke-opacity:1;stroke-miterlimit:10;" d="M 22.146207 12.817299 L 24.159489 12.792689 " transform="matrix(20,0,0,20,-355.369459,-205.474879)"/>
<path style="fill:none;stroke-width:0.1;stroke-linecap:butt;stroke-linejoin:miter;stroke:rgb(0%,0%,0%);stroke-opacity:1;stroke-miterlimit:10;" d="M 23.277262 14.796596 L 24.298551 13.028431 " transform="matrix(20,0,0,20,-355.369459,-205.474879)"/>
<path style="fill:none;stroke-width:0.1;stroke-linecap:butt;stroke-linejoin:miter;stroke:rgb(0%,0%,0%);stroke-opacity:1;stroke-miterlimit:10;" d="M 24.714957 12.78058 L 26.843278 12.713197 " transform="matrix(20,0,0,20,-355.369459,-205.474879)"/>
<path style="fill:none;stroke-width:0.1;stroke-linecap:butt;stroke-linejoin:miter;stroke:rgb(0%,0%,0%);stroke-opacity:1;stroke-miterlimit:10;" d="M 26.990153 12.92726 L 25.958121 14.676478 " transform="matrix(20,0,0,20,-355.369459,-205.474879)"/>
<path style="fill:none;stroke-width:0.1;stroke-linecap:butt;stroke-linejoin:miter;stroke:rgb(0%,0%,0%);stroke-opacity:1;stroke-miterlimit:10;" d="M 24.589371 13.021205 L 25.673942 14.667494 " transform="matrix(20,0,0,20,-355.369459,-205.474879)"/>
<path style="fill:none;stroke-width:0.1;stroke-linecap:butt;stroke-linejoin:miter;stroke:rgb(0%,0%,0%);stroke-opacity:1;stroke-miterlimit:10;" d="M 22.224723 17.153041 L 24.304215 17.068275 " transform="matrix(20,0,0,20,-355.369459,-205.474879)"/>
<path style="fill:none;stroke-width:0.1;stroke-linecap:butt;stroke-linejoin:miter;stroke:rgb(0%,0%,0%);stroke-opacity:1;stroke-miterlimit:10;" d="M 23.414762 15.021596 L 25.55109 14.913392 " transform="matrix(20,0,0,20,-355.369459,-205.474879)"/>
<path style="fill:none;stroke-width:0.1;stroke-linecap:butt;stroke-linejoin:miter;stroke:rgb(0%,0%,0%);stroke-opacity:1;stroke-miterlimit:10;" d="M 24.720426 16.816127 L 25.687614 15.14015 " transform="matrix(20,0,0,20,-355.369459,-205.474879)"/>
<path style="fill:none;stroke-width:0.1;stroke-linecap:butt;stroke-linejoin:miter;stroke:rgb(0%,0%,0%);stroke-opacity:1;stroke-miterlimit:10;" d="M 26.104606 14.90226 L 27.76359 14.919056 " transform="matrix(20,0,0,20,-355.369459,-205.474879)"/>
<path style="fill:none;stroke-width:0.1;stroke-linecap:butt;stroke-linejoin:miter;stroke:rgb(0%,0%,0%);stroke-opacity:1;stroke-miterlimit:10;" d="M 27.935074 14.665346 L 27.228043 12.961049 " transform="matrix(20,0,0,20,-355.369459,-205.474879)"/>
<path style="fill:none;stroke-width:0.1;stroke-linecap:butt;stroke-linejoin:miter;stroke:rgb(0%,0%,0%);stroke-opacity:1;stroke-miterlimit:10;" d="M 27.399332 12.705385 L 28.886442 12.710853 " transform="matrix(20,0,0,20,-355.369459,-205.474879)"/>
<path style="fill:none;stroke-width:0.1;stroke-linecap:butt;stroke-linejoin:miter;stroke:rgb(0%,0%,0%);stroke-opacity:1;stroke-miterlimit:10;" d="M 29.152653 12.437611 L 29.085465 10.826088 " transform="matrix(20,0,0,20,-355.369459,-205.474879)"/>
<path style="fill:none;stroke-width:0.1;stroke-linecap:butt;stroke-linejoin:miter;stroke:rgb(100%,0%,0%);stroke-opacity:1;stroke-miterlimit:10;" d="M 27.308707 12.498158 L 28.887028 10.758119 " transform="matrix(20,0,0,20,-355.369459,-205.474879)"/>
<path style="fill:none;stroke-width:0.1;stroke-linecap:butt;stroke-linejoin:miter;stroke:rgb(100%,0%,0%);stroke-opacity:1;stroke-miterlimit:10;" d="M 29.282145 10.735853 L 31.20109 12.432924 " transform="matrix(20,0,0,20,-355.369459,-205.474879)"/>
<path style="fill:none;stroke-width:0.1;stroke-linecap:butt;stroke-linejoin:miter;stroke:rgb(0%,0%,0%);stroke-opacity:1;stroke-miterlimit:10;" d="M 31.131754 12.628627 L 29.44152 12.700111 " transform="matrix(20,0,0,20,-355.369459,-205.474879)"/>
<path style="fill:none;stroke-width:0.1;stroke-linecap:butt;stroke-linejoin:miter;stroke:rgb(0%,0%,0%);stroke-opacity:1;stroke-miterlimit:10;" d="M 30.066129 14.919642 L 28.269645 14.921791 " transform="matrix(20,0,0,20,-355.369459,-205.474879)"/>
<path style="fill:none;stroke-width:0.1;stroke-linecap:butt;stroke-linejoin:miter;stroke:rgb(0%,0%,0%);stroke-opacity:1;stroke-miterlimit:10;" d="M 29.03859 12.9589 L 28.167106 14.674721 " transform="matrix(20,0,0,20,-355.369459,-205.474879)"/>
<path style="fill:none;stroke-width:0.1;stroke-linecap:butt;stroke-linejoin:miter;stroke:rgb(100%,0%,0%);stroke-opacity:1;stroke-miterlimit:10;" d="M 31.292301 12.869252 L 30.460856 14.666908 " transform="matrix(20,0,0,20,-355.369459,-205.474879)"/>
<path style="fill:none;stroke-width:0.1;stroke-linecap:butt;stroke-linejoin:miter;stroke:rgb(0%,0%,0%);stroke-opacity:1;stroke-miterlimit:10;" d="M 27.892887 15.155775 L 26.86027 16.780385 " transform="matrix(20,0,0,20,-355.369459,-205.474879)"/>
<path style="fill:none;stroke-width:0.1;stroke-linecap:butt;stroke-linejoin:miter;stroke:rgb(0%,0%,0%);stroke-opacity:1;stroke-miterlimit:10;" d="M 25.933903 15.155971 L 26.604215 16.757728 " transform="matrix(20,0,0,20,-355.369459,-205.474879)"/>
<path style="fill:none;stroke-width:0.1;stroke-linecap:butt;stroke-linejoin:miter;stroke:rgb(0%,0%,0%);stroke-opacity:1;stroke-miterlimit:10;" d="M 24.858317 17.051283 L 26.434879 17.019838 " transform="matrix(20,0,0,20,-355.369459,-205.474879)"/>
<path style="fill:none;stroke-width:0.1;stroke-linecap:butt;stroke-linejoin:miter;stroke:rgb(0%,0%,0%);stroke-opacity:1;stroke-miterlimit:10;" d="M 23.300309 15.261635 L 24.420231 16.830775 " transform="matrix(20,0,0,20,-355.369459,-205.474879)"/>
<path style="fill-rule:evenodd;fill:rgb(100%,0%,0%);fill-opacity:1;stroke-width:0.1;stroke-linecap:butt;stroke-linejoin:miter;stroke:rgb(100%,0%,0%);stroke-opacity:1;stroke-miterlimit:10;" d="M 25.864762 10.864369 C 25.864762 11.168471 25.408512 11.168471 25.408512 10.864369 C 25.408512 10.560267 25.864762 10.560267 25.864762 10.864369 " transform="matrix(20,0,0,20,-355.369459,-205.474879)"/>
<path style="fill:none;stroke-width:0.1;stroke-linecap:butt;stroke-linejoin:miter;stroke:rgb(100%,0%,0%);stroke-opacity:1;stroke-miterlimit:10;" d="M 25.864762 10.864369 C 25.864762 11.168471 25.408512 11.168471 25.408512 10.864369 C 25.408512 10.560267 25.864762 10.560267 25.864762 10.864369 " transform="matrix(20,0,0,20,-355.369459,-205.474879)"/>
<path style="fill-rule:evenodd;fill:rgb(100%,0%,0%);fill-opacity:1;stroke-width:0.1;stroke-linecap:butt;stroke-linejoin:miter;stroke:rgb(100%,0%,0%);stroke-opacity:1;stroke-miterlimit:10;" d="M 29.484684 17.044447 C 29.484684 17.348549 29.028434 17.348549 29.028434 17.044447 C 29.028434 16.74015 29.484684 16.74015 29.484684 17.044447 " transform="matrix(20,0,0,20,-355.369459,-205.474879)"/>
<path style="fill:none;stroke-width:0.1;stroke-linecap:butt;stroke-linejoin:miter;stroke:rgb(100%,0%,0%);stroke-opacity:1;stroke-miterlimit:10;" d="M 29.484684 17.044447 C 29.484684 17.348549 29.028434 17.348549 29.028434 17.044447 C 29.028434 16.74015 29.484684 16.74015 29.484684 17.044447 " transform="matrix(20,0,0,20,-355.369459,-205.474879)"/>
<path style="fill-rule:evenodd;fill:rgb(0%,0%,0%);fill-opacity:1;stroke-width:0.1;stroke-linecap:butt;stroke-linejoin:miter;stroke:rgb(0%,0%,0%);stroke-opacity:1;stroke-miterlimit:10;" d="M 22.267301 10.94933 C 22.267301 11.253627 21.811051 11.253627 21.811051 10.94933 C 21.811051 10.645228 22.267301 10.645228 22.267301 10.94933 " transform="matrix(20,0,0,20,-355.369459,-205.474879)"/>
<path style="fill:none;stroke-width:0.1;stroke-linecap:butt;stroke-linejoin:miter;stroke:rgb(0%,0%,0%);stroke-opacity:1;stroke-miterlimit:10;" d="M 22.267301 10.94933 C 22.267301 11.253627 21.811051 11.253627 21.811051 10.94933 C 21.811051 10.645228 22.267301 10.645228 22.267301 10.94933 " transform="matrix(20,0,0,20,-355.369459,-205.474879)"/>
<path style="fill-rule:evenodd;fill:rgb(100%,0%,0%);fill-opacity:1;stroke-width:0.1;stroke-linecap:butt;stroke-linejoin:miter;stroke:rgb(100%,0%,0%);stroke-opacity:1;stroke-miterlimit:10;" d="M 18.274723 11.379408 C 18.274723 11.68351 17.818473 11.68351 17.818473 11.379408 C 17.818473 11.075111 18.274723 11.075111 18.274723 11.379408 " transform="matrix(20,0,0,20,-355.369459,-205.474879)"/>
<path style="fill:none;stroke-width:0.1;stroke-linecap:butt;stroke-linejoin:miter;stroke:rgb(100%,0%,0%);stroke-opacity:1;stroke-miterlimit:10;" d="M 18.274723 11.379408 C 18.274723 11.68351 17.818473 11.68351 17.818473 11.379408 C 17.818473 11.075111 18.274723 11.075111 18.274723 11.379408 " transform="matrix(20,0,0,20,-355.369459,-205.474879)"/>
<path style="fill:none;stroke-width:0.1;stroke-linecap:butt;stroke-linejoin:miter;stroke:rgb(0%,0%,0%);stroke-opacity:1;stroke-miterlimit:10;" d="M 18.071989 11.656556 L 18.356168 14.75851 " transform="matrix(20,0,0,20,-355.369459,-205.474879)"/>
<path style="fill:none;stroke-width:0.1;stroke-linecap:butt;stroke-linejoin:miter;stroke:rgb(0%,0%,0%);stroke-opacity:1;stroke-miterlimit:10;" d="M 18.248942 11.569642 L 19.376676 12.630189 " transform="matrix(20,0,0,20,-355.369459,-205.474879)"/>
<path style="fill:none;stroke-width:0.1;stroke-linecap:butt;stroke-linejoin:miter;stroke:rgb(0%,0%,0%);stroke-opacity:1;stroke-miterlimit:10;" d="M 18.321403 11.349721 L 21.764176 10.979017 " transform="matrix(20,0,0,20,-355.369459,-205.474879)"/>
<path style="fill:none;stroke-width:0.1;stroke-linecap:butt;stroke-linejoin:miter;stroke:rgb(0%,0%,0%);stroke-opacity:1;stroke-miterlimit:10;" d="M 21.817692 11.117689 L 19.800504 12.65226 " transform="matrix(20,0,0,20,-355.369459,-205.474879)"/>
<path style="fill:none;stroke-width:0.1;stroke-linecap:butt;stroke-linejoin:miter;stroke:rgb(0%,0%,0%);stroke-opacity:1;stroke-miterlimit:10;" d="M 22.014567 11.219838 L 21.893668 12.550111 " transform="matrix(20,0,0,20,-355.369459,-205.474879)"/>
<path style="fill:none;stroke-width:0.1;stroke-linecap:butt;stroke-linejoin:miter;stroke:rgb(0%,0%,0%);stroke-opacity:1;stroke-miterlimit:10;" d="M 22.317106 10.942885 L 25.358707 10.87101 " transform="matrix(20,0,0,20,-355.369459,-205.474879)"/>
<path style="fill:none;stroke-width:0.1;stroke-linecap:butt;stroke-linejoin:miter;stroke:rgb(0%,0%,0%);stroke-opacity:1;stroke-miterlimit:10;" d="M 25.490153 11.09933 L 24.583121 12.554408 " transform="matrix(20,0,0,20,-355.369459,-205.474879)"/>
<path style="fill:none;stroke-width:0.1;stroke-linecap:butt;stroke-linejoin:miter;stroke:rgb(100%,0%,0%);stroke-opacity:1;stroke-miterlimit:10;" d="M 25.811051 11.080385 L 26.947184 12.488392 " transform="matrix(20,0,0,20,-355.369459,-205.474879)"/>
<path style="fill:none;stroke-width:0.1;stroke-linecap:butt;stroke-linejoin:miter;stroke:rgb(100%,0%,0%);stroke-opacity:1;stroke-miterlimit:10;" d="M 25.913981 10.839174 L 28.796793 10.577064 " transform="matrix(20,0,0,20,-355.369459,-205.474879)"/>
<path style="fill:none;stroke-width:0.1;stroke-linecap:butt;stroke-linejoin:miter;stroke:rgb(100%,0%,0%);stroke-opacity:1;stroke-miterlimit:10;" d="M 30.217496 15.166908 L 29.383317 16.796986 " transform="matrix(20,0,0,20,-355.369459,-205.474879)"/>
<path style="fill:none;stroke-width:0.1;stroke-linecap:butt;stroke-linejoin:miter;stroke:rgb(0%,0%,0%);stroke-opacity:1;stroke-miterlimit:10;" d="M 28.179606 15.162806 L 29.118668 16.803431 " transform="matrix(20,0,0,20,-355.369459,-205.474879)"/>
<path style="fill:none;stroke-width:0.1;stroke-linecap:butt;stroke-linejoin:miter;stroke:rgb(0%,0%,0%);stroke-opacity:1;stroke-miterlimit:10;" d="M 26.970035 17.017494 L 28.99816 17.041322 " transform="matrix(20,0,0,20,-355.369459,-205.474879)"/>
<path style="fill:none;stroke-width:0.1;stroke-linecap:butt;stroke-linejoin:miter;stroke:rgb(0%,0%,0%);stroke-opacity:1;stroke-miterlimit:10;" d="M 22.259684 11.118666 L 24.215934 12.620033 " transform="matrix(20,0,0,20,-355.369459,-205.474879)"/>
<path style="fill-rule:evenodd;fill:rgb(0%,100%,0%);fill-opacity:1;stroke-width:0.1;stroke-linecap:butt;stroke-linejoin:miter;stroke:rgb(0%,100%,0%);stroke-opacity:1;stroke-miterlimit:10;" d="M 20.333512 13.936244 C 20.333512 14.119642 20.058512 14.119642 20.058512 13.936244 C 20.058512 13.752846 20.333512 13.752846 20.333512 13.936244 " transform="matrix(20,0,0,20,-355.369459,-205.474879)"/>
<path style="fill:none;stroke-width:0.1;stroke-linecap:butt;stroke-linejoin:miter;stroke:rgb(0%,100%,0%);stroke-opacity:1;stroke-miterlimit:10;" d="M 20.333512 13.936244 C 20.333512 14.119642 20.058512 14.119642 20.058512 13.936244 C 20.058512 13.752846 20.333512 13.752846 20.333512 13.936244 " transform="matrix(20,0,0,20,-355.369459,-205.474879)"/>
<path style="fill-rule:evenodd;fill:rgb(0%,100%,0%);fill-opacity:1;stroke-width:0.1;stroke-linecap:butt;stroke-linejoin:miter;stroke:rgb(0%,100%,0%);stroke-opacity:1;stroke-miterlimit:10;" d="M 19.721012 15.023744 C 19.721012 15.207142 19.446012 15.207142 19.446012 15.023744 C 19.446012 14.840346 19.721012 14.840346 19.721012 15.023744 " transform="matrix(20,0,0,20,-355.369459,-205.474879)"/>
<path style="fill:none;stroke-width:0.1;stroke-linecap:butt;stroke-linejoin:miter;stroke:rgb(0%,100%,0%);stroke-opacity:1;stroke-miterlimit:10;" d="M 19.721012 15.023744 C 19.721012 15.207142 19.446012 15.207142 19.446012 15.023744 C 19.446012 14.840346 19.721012 14.840346 19.721012 15.023744 " transform="matrix(20,0,0,20,-355.369459,-205.474879)"/>
<path style="fill-rule:evenodd;fill:rgb(0%,100%,0%);fill-opacity:1;stroke-width:0.1;stroke-linecap:butt;stroke-linejoin:miter;stroke:rgb(0%,100%,0%);stroke-opacity:1;stroke-miterlimit:10;" d="M 20.340934 16.066322 C 20.340934 16.249525 20.065934 16.249525 20.065934 16.066322 C 20.065934 15.882924 20.340934 15.882924 20.340934 16.066322 " transform="matrix(20,0,0,20,-355.369459,-205.474879)"/>
<path style="fill:none;stroke-width:0.1;stroke-linecap:butt;stroke-linejoin:miter;stroke:rgb(0%,100%,0%);stroke-opacity:1;stroke-miterlimit:10;" d="M 20.340934 16.066322 C 20.340934 16.249525 20.065934 16.249525 20.065934 16.066322 C 20.065934 15.882924 20.340934 15.882924 20.340934 16.066322 " transform="matrix(20,0,0,20,-355.369459,-205.474879)"/>
<path style="fill-rule:evenodd;fill:rgb(0%,100%,0%);fill-opacity:1;stroke-width:0.1;stroke-linecap:butt;stroke-linejoin:miter;stroke:rgb(0%,100%,0%);stroke-opacity:1;stroke-miterlimit:10;" d="M 21.511051 16.083705 C 21.511051 16.267103 21.236051 16.267103 21.236051 16.083705 C 21.236051 15.900502 21.511051 15.900502 21.511051 16.083705 " transform="matrix(20,0,0,20,-355.369459,-205.474879)"/>
<path style="fill:none;stroke-width:0.1;stroke-linecap:butt;stroke-linejoin:miter;stroke:rgb(0%,100%,0%);stroke-opacity:1;stroke-miterlimit:10;" d="M 21.511051 16.083705 C 21.511051 16.267103 21.236051 16.267103 21.236051 16.083705 C 21.236051 15.900502 21.511051 15.900502 21.511051 16.083705 " transform="matrix(20,0,0,20,-355.369459,-205.474879)"/>
<path style="fill-rule:evenodd;fill:rgb(0%,100%,0%);fill-opacity:1;stroke-width:0.1;stroke-linecap:butt;stroke-linejoin:miter;stroke:rgb(0%,100%,0%);stroke-opacity:1;stroke-miterlimit:10;" d="M 21.443473 13.976283 C 21.443473 14.159486 21.168473 14.159486 21.168473 13.976283 C 21.168473 13.792885 21.443473 13.792885 21.443473 13.976283 " transform="matrix(20,0,0,20,-355.369459,-205.474879)"/>
<path style="fill:none;stroke-width:0.1;stroke-linecap:butt;stroke-linejoin:miter;stroke:rgb(0%,100%,0%);stroke-opacity:1;stroke-miterlimit:10;" d="M 21.443473 13.976283 C 21.443473 14.159486 21.168473 14.159486 21.168473 13.976283 C 21.168473 13.792885 21.443473 13.792885 21.443473 13.976283 " transform="matrix(20,0,0,20,-355.369459,-205.474879)"/>
<path style="fill-rule:evenodd;fill:rgb(0%,100%,0%);fill-opacity:1;stroke-width:0.1;stroke-linecap:butt;stroke-linejoin:miter;stroke:rgb(0%,100%,0%);stroke-opacity:1;stroke-miterlimit:10;" d="M 22.638395 13.931166 C 22.638395 14.114564 22.363395 14.114564 22.363395 13.931166 C 22.363395 13.747963 22.638395 13.747963 22.638395 13.931166 " transform="matrix(20,0,0,20,-355.369459,-205.474879)"/>
<path style="fill:none;stroke-width:0.1;stroke-linecap:butt;stroke-linejoin:miter;stroke:rgb(0%,100%,0%);stroke-opacity:1;stroke-miterlimit:10;" d="M 22.638395 13.931166 C 22.638395 14.114564 22.363395 14.114564 22.363395 13.931166 C 22.363395 13.747963 22.638395 13.747963 22.638395 13.931166 " transform="matrix(20,0,0,20,-355.369459,-205.474879)"/>
<path style="fill-rule:evenodd;fill:rgb(0%,100%,0%);fill-opacity:1;stroke-width:0.1;stroke-linecap:butt;stroke-linejoin:miter;stroke:rgb(0%,100%,0%);stroke-opacity:1;stroke-miterlimit:10;" d="M 23.871012 13.936244 C 23.871012 14.119642 23.596012 14.119642 23.596012 13.936244 C 23.596012 13.752846 23.871012 13.752846 23.871012 13.936244 " transform="matrix(20,0,0,20,-355.369459,-205.474879)"/>
<path style="fill:none;stroke-width:0.1;stroke-linecap:butt;stroke-linejoin:miter;stroke:rgb(0%,100%,0%);stroke-opacity:1;stroke-miterlimit:10;" d="M 23.871012 13.936244 C 23.871012 14.119642 23.596012 14.119642 23.596012 13.936244 C 23.596012 13.752846 23.871012 13.752846 23.871012 13.936244 " transform="matrix(20,0,0,20,-355.369459,-205.474879)"/>
<path style="fill-rule:evenodd;fill:rgb(0%,100%,0%);fill-opacity:1;stroke-width:0.1;stroke-linecap:butt;stroke-linejoin:miter;stroke:rgb(0%,100%,0%);stroke-opacity:1;stroke-miterlimit:10;" d="M 24.640934 14.978822 C 24.640934 15.162025 24.365934 15.162025 24.365934 14.978822 C 24.365934 14.795424 24.640934 14.795424 24.640934 14.978822 " transform="matrix(20,0,0,20,-355.369459,-205.474879)"/>
<path style="fill:none;stroke-width:0.1;stroke-linecap:butt;stroke-linejoin:miter;stroke:rgb(0%,100%,0%);stroke-opacity:1;stroke-miterlimit:10;" d="M 24.640934 14.978822 C 24.640934 15.162025 24.365934 15.162025 24.365934 14.978822 C 24.365934 14.795424 24.640934 14.795424 24.640934 14.978822 " transform="matrix(20,0,0,20,-355.369459,-205.474879)"/>
<path style="fill-rule:evenodd;fill:rgb(0%,100%,0%);fill-opacity:1;stroke-width:0.1;stroke-linecap:butt;stroke-linejoin:miter;stroke:rgb(0%,100%,0%);stroke-opacity:1;stroke-miterlimit:10;" d="M 23.973551 16.046205 C 23.973551 16.229603 23.698551 16.229603 23.698551 16.046205 C 23.698551 15.863002 23.973551 15.863002 23.973551 16.046205 " transform="matrix(20,0,0,20,-355.369459,-205.474879)"/>
<path style="fill:none;stroke-width:0.1;stroke-linecap:butt;stroke-linejoin:miter;stroke:rgb(0%,100%,0%);stroke-opacity:1;stroke-miterlimit:10;" d="M 23.973551 16.046205 C 23.973551 16.229603 23.698551 16.229603 23.698551 16.046205 C 23.698551 15.863002 23.973551 15.863002 23.973551 16.046205 " transform="matrix(20,0,0,20,-355.369459,-205.474879)"/>
<path style="fill-rule:evenodd;fill:rgb(0%,100%,0%);fill-opacity:1;stroke-width:0.1;stroke-linecap:butt;stroke-linejoin:miter;stroke:rgb(0%,100%,0%);stroke-opacity:1;stroke-miterlimit:10;" d="M 22.668473 16.051283 C 22.668473 16.234486 22.393473 16.234486 22.393473 16.051283 C 22.393473 15.867885 22.668473 15.867885 22.668473 16.051283 " transform="matrix(20,0,0,20,-355.369459,-205.474879)"/>
<path style="fill:none;stroke-width:0.1;stroke-linecap:butt;stroke-linejoin:miter;stroke:rgb(0%,100%,0%);stroke-opacity:1;stroke-miterlimit:10;" d="M 22.668473 16.051283 C 22.668473 16.234486 22.393473 16.234486 22.393473 16.051283 C 22.393473 15.867885 22.668473 15.867885 22.668473 16.051283 " transform="matrix(20,0,0,20,-355.369459,-205.474879)"/>
<path style="fill-rule:evenodd;fill:rgb(0%,100%,0%);fill-opacity:1;stroke-width:0.1;stroke-linecap:butt;stroke-linejoin:miter;stroke:rgb(0%,100%,0%);stroke-opacity:1;stroke-miterlimit:10;" d="M 18.946012 12.111244 C 18.946012 12.294642 18.671012 12.294642 18.671012 12.111244 C 18.671012 11.927846 18.946012 11.927846 18.946012 12.111244 " transform="matrix(20,0,0,20,-355.369459,-205.474879)"/>
<path style="fill:none;stroke-width:0.1;stroke-linecap:butt;stroke-linejoin:miter;stroke:rgb(0%,100%,0%);stroke-opacity:1;stroke-miterlimit:10;" d="M 18.946012 12.111244 C 18.946012 12.294642 18.671012 12.294642 18.671012 12.111244 C 18.671012 11.927846 18.946012 11.927846 18.946012 12.111244 " transform="matrix(20,0,0,20,-355.369459,-205.474879)"/>
<path style="fill-rule:evenodd;fill:rgb(0%,100%,0%);fill-opacity:1;stroke-width:0.1;stroke-linecap:butt;stroke-linejoin:miter;stroke:rgb(0%,100%,0%);stroke-opacity:1;stroke-miterlimit:10;" d="M 20.103434 11.166322 C 20.103434 11.349525 19.828434 11.349525 19.828434 11.166322 C 19.828434 10.982924 20.103434 10.982924 20.103434 11.166322 " transform="matrix(20,0,0,20,-355.369459,-205.474879)"/>
<path style="fill:none;stroke-width:0.1;stroke-linecap:butt;stroke-linejoin:miter;stroke:rgb(0%,100%,0%);stroke-opacity:1;stroke-miterlimit:10;" d="M 20.103434 11.166322 C 20.103434 11.349525 19.828434 11.349525 19.828434 11.166322 C 19.828434 10.982924 20.103434 10.982924 20.103434 11.166322 " transform="matrix(20,0,0,20,-355.369459,-205.474879)"/>
<path style="fill-rule:evenodd;fill:rgb(0%,100%,0%);fill-opacity:1;stroke-width:0.1;stroke-linecap:butt;stroke-linejoin:miter;stroke:rgb(0%,100%,0%);stroke-opacity:1;stroke-miterlimit:10;" d="M 18.361051 13.183705 C 18.361051 13.367103 18.086051 13.367103 18.086051 13.183705 C 18.086051 13.000502 18.361051 13.000502 18.361051 13.183705 " transform="matrix(20,0,0,20,-355.369459,-205.474879)"/>
<path style="fill:none;stroke-width:0.1;stroke-linecap:butt;stroke-linejoin:miter;stroke:rgb(0%,100%,0%);stroke-opacity:1;stroke-miterlimit:10;" d="M 18.361051 13.183705 C 18.361051 13.367103 18.086051 13.367103 18.086051 13.183705 C 18.086051 13.000502 18.361051 13.000502 18.361051 13.183705 " transform="matrix(20,0,0,20,-355.369459,-205.474879)"/>
<path style="fill-rule:evenodd;fill:rgb(0%,100%,0%);fill-opacity:1;stroke-width:0.1;stroke-linecap:butt;stroke-linejoin:miter;stroke:rgb(0%,100%,0%);stroke-opacity:1;stroke-miterlimit:10;" d="M 24.018473 10.913783 C 24.018473 11.096986 23.743473 11.096986 23.743473 10.913783 C 23.743473 10.730385 24.018473 10.730385 24.018473 10.913783 " transform="matrix(20,0,0,20,-355.369459,-205.474879)"/>
<path style="fill:none;stroke-width:0.1;stroke-linecap:butt;stroke-linejoin:miter;stroke:rgb(0%,100%,0%);stroke-opacity:1;stroke-miterlimit:10;" d="M 24.018473 10.913783 C 24.018473 11.096986 23.743473 11.096986 23.743473 10.913783 C 23.743473 10.730385 24.018473 10.730385 24.018473 10.913783 " transform="matrix(20,0,0,20,-355.369459,-205.474879)"/>
<path style="fill-rule:evenodd;fill:rgb(0%,100%,0%);fill-opacity:1;stroke-width:0.1;stroke-linecap:butt;stroke-linejoin:miter;stroke:rgb(0%,100%,0%);stroke-opacity:1;stroke-miterlimit:10;" d="M 25.925895 12.731166 C 25.925895 12.914564 25.650895 12.914564 25.650895 12.731166 C 25.650895 12.547963 25.925895 12.547963 25.925895 12.731166 " transform="matrix(20,0,0,20,-355.369459,-205.474879)"/>
<path style="fill:none;stroke-width:0.1;stroke-linecap:butt;stroke-linejoin:miter;stroke:rgb(0%,100%,0%);stroke-opacity:1;stroke-miterlimit:10;" d="M 25.925895 12.731166 C 25.925895 12.914564 25.650895 12.914564 25.650895 12.731166 C 25.650895 12.547963 25.925895 12.547963 25.925895 12.731166 " transform="matrix(20,0,0,20,-355.369459,-205.474879)"/>
<path style="fill-rule:evenodd;fill:rgb(0%,100%,0%);fill-opacity:1;stroke-width:0.1;stroke-linecap:butt;stroke-linejoin:miter;stroke:rgb(0%,100%,0%);stroke-opacity:1;stroke-miterlimit:10;" d="M 26.596012 13.848744 C 26.596012 14.032142 26.321012 14.032142 26.321012 13.848744 C 26.321012 13.665346 26.596012 13.665346 26.596012 13.848744 " transform="matrix(20,0,0,20,-355.369459,-205.474879)"/>
<path style="fill:none;stroke-width:0.1;stroke-linecap:butt;stroke-linejoin:miter;stroke:rgb(0%,100%,0%);stroke-opacity:1;stroke-miterlimit:10;" d="M 26.596012 13.848744 C 26.596012 14.032142 26.321012 14.032142 26.321012 13.848744 C 26.321012 13.665346 26.596012 13.665346 26.596012 13.848744 " transform="matrix(20,0,0,20,-355.369459,-205.474879)"/>
<path style="fill-rule:evenodd;fill:rgb(0%,100%,0%);fill-opacity:1;stroke-width:0.1;stroke-linecap:butt;stroke-linejoin:miter;stroke:rgb(0%,100%,0%);stroke-opacity:1;stroke-miterlimit:10;" d="M 28.803434 15.953822 C 28.803434 16.137025 28.528434 16.137025 28.528434 15.953822 C 28.528434 15.770424 28.803434 15.770424 28.803434 15.953822 " transform="matrix(20,0,0,20,-355.369459,-205.474879)"/>
<path style="fill:none;stroke-width:0.1;stroke-linecap:butt;stroke-linejoin:miter;stroke:rgb(0%,100%,0%);stroke-opacity:1;stroke-miterlimit:10;" d="M 28.803434 15.953822 C 28.803434 16.137025 28.528434 16.137025 28.528434 15.953822 C 28.528434 15.770424 28.803434 15.770424 28.803434 15.953822 " transform="matrix(20,0,0,20,-355.369459,-205.474879)"/>
<path style="fill-rule:evenodd;fill:rgb(0%,100%,0%);fill-opacity:1;stroke-width:0.1;stroke-linecap:butt;stroke-linejoin:miter;stroke:rgb(0%,100%,0%);stroke-opacity:1;stroke-miterlimit:10;" d="M 28.136051 17.046205 C 28.136051 17.229603 27.861051 17.229603 27.861051 17.046205 C 27.861051 16.863002 28.136051 16.863002 28.136051 17.046205 " transform="matrix(20,0,0,20,-355.369459,-205.474879)"/>
<path style="fill:none;stroke-width:0.1;stroke-linecap:butt;stroke-linejoin:miter;stroke:rgb(0%,100%,0%);stroke-opacity:1;stroke-miterlimit:10;" d="M 28.136051 17.046205 C 28.136051 17.229603 27.861051 17.229603 27.861051 17.046205 C 27.861051 16.863002 28.136051 16.863002 28.136051 17.046205 " transform="matrix(20,0,0,20,-355.369459,-205.474879)"/>
<path style="fill-rule:evenodd;fill:rgb(0%,100%,0%);fill-opacity:1;stroke-width:0.1;stroke-linecap:butt;stroke-linejoin:miter;stroke:rgb(0%,100%,0%);stroke-opacity:1;stroke-miterlimit:10;" d="M 29.330973 14.913783 C 29.330973 15.096986 29.055973 15.096986 29.055973 14.913783 C 29.055973 14.730385 29.330973 14.730385 29.330973 14.913783 " transform="matrix(20,0,0,20,-355.369459,-205.474879)"/>
<path style="fill:none;stroke-width:0.1;stroke-linecap:butt;stroke-linejoin:miter;stroke:rgb(0%,100%,0%);stroke-opacity:1;stroke-miterlimit:10;" d="M 29.330973 14.913783 C 29.330973 15.096986 29.055973 15.096986 29.055973 14.913783 C 29.055973 14.730385 29.330973 14.730385 29.330973 14.913783 " transform="matrix(20,0,0,20,-355.369459,-205.474879)"/>
<path style="fill-rule:evenodd;fill:rgb(0%,100%,0%);fill-opacity:1;stroke-width:0.1;stroke-linecap:butt;stroke-linejoin:miter;stroke:rgb(0%,100%,0%);stroke-opacity:1;stroke-miterlimit:10;" d="M 30.471012 12.686244 C 30.471012 12.869642 30.196012 12.869642 30.196012 12.686244 C 30.196012 12.502846 30.471012 12.502846 30.471012 12.686244 " transform="matrix(20,0,0,20,-355.369459,-205.474879)"/>
<path style="fill:none;stroke-width:0.1;stroke-linecap:butt;stroke-linejoin:miter;stroke:rgb(0%,100%,0%);stroke-opacity:1;stroke-miterlimit:10;" d="M 30.471012 12.686244 C 30.471012 12.869642 30.196012 12.869642 30.196012 12.686244 C 30.196012 12.502846 30.471012 12.502846 30.471012 12.686244 " transform="matrix(20,0,0,20,-355.369459,-205.474879)"/>
<path style="fill-rule:evenodd;fill:rgb(0%,100%,0%);fill-opacity:1;stroke-width:0.1;stroke-linecap:butt;stroke-linejoin:miter;stroke:rgb(0%,100%,0%);stroke-opacity:1;stroke-miterlimit:10;" d="M 29.290934 11.641322 C 29.290934 11.824525 29.015934 11.824525 29.015934 11.641322 C 29.015934 11.457924 29.290934 11.457924 29.290934 11.641322 " transform="matrix(20,0,0,20,-355.369459,-205.474879)"/>
<path style="fill:none;stroke-width:0.1;stroke-linecap:butt;stroke-linejoin:miter;stroke:rgb(0%,100%,0%);stroke-opacity:1;stroke-miterlimit:10;" d="M 29.290934 11.641322 C 29.290934 11.824525 29.015934 11.824525 29.015934 11.641322 C 29.015934 11.457924 29.290934 11.457924 29.290934 11.641322 " transform="matrix(20,0,0,20,-355.369459,-205.474879)"/>
<path style="fill-rule:evenodd;fill:rgb(0%,100%,0%);fill-opacity:1;stroke-width:0.1;stroke-linecap:butt;stroke-linejoin:miter;stroke:rgb(0%,100%,0%);stroke-opacity:1;stroke-miterlimit:10;" d="M 25.211051 11.821205 C 25.211051 12.004603 24.936051 12.004603 24.936051 11.821205 C 24.936051 11.638002 25.211051 11.638002 25.211051 11.821205 " transform="matrix(20,0,0,20,-355.369459,-205.474879)"/>
<path style="fill:none;stroke-width:0.1;stroke-linecap:butt;stroke-linejoin:miter;stroke:rgb(0%,100%,0%);stroke-opacity:1;stroke-miterlimit:10;" d="M 25.211051 11.821205 C 25.211051 12.004603 24.936051 12.004603 24.936051 11.821205 C 24.936051 11.638002 25.211051 11.638002 25.211051 11.821205 " transform="matrix(20,0,0,20,-355.369459,-205.474879)"/>
<path style="fill-rule:evenodd;fill:rgb(0%,100%,0%);fill-opacity:1;stroke-width:0.1;stroke-linecap:butt;stroke-linejoin:miter;stroke:rgb(0%,100%,0%);stroke-opacity:1;stroke-miterlimit:10;" d="M 27.780973 13.813783 C 27.780973 13.996986 27.505973 13.996986 27.505973 13.813783 C 27.505973 13.630385 27.780973 13.630385 27.780973 13.813783 " transform="matrix(20,0,0,20,-355.369459,-205.474879)"/>
<path style="fill:none;stroke-width:0.1;stroke-linecap:butt;stroke-linejoin:miter;stroke:rgb(0%,100%,0%);stroke-opacity:1;stroke-miterlimit:10;" d="M 27.780973 13.813783 C 27.780973 13.996986 27.505973 13.996986 27.505973 13.813783 C 27.505973 13.630385 27.780973 13.630385 27.780973 13.813783 " transform="matrix(20,0,0,20,-355.369459,-205.474879)"/>
<path style="fill:none;stroke-width:0.07;stroke-linecap:butt;stroke-linejoin:miter;stroke:rgb(0%,0%,100%);stroke-opacity:1;stroke-miterlimit:10;" d="M 20.09484 14.09308 L 19.583512 14.886244 " transform="matrix(20,0,0,20,-355.369459,-205.474879)"/>
<path style="fill:none;stroke-width:0.07;stroke-linecap:butt;stroke-linejoin:miter;stroke:rgb(0%,0%,100%);stroke-opacity:1;stroke-miterlimit:10;" d="M 20.382926 13.94308 L 21.119059 13.969447 " transform="matrix(20,0,0,20,-355.369459,-205.474879)"/>
<path style="fill:none;stroke-width:0.07;stroke-linecap:butt;stroke-linejoin:miter;stroke:rgb(0%,0%,100%);stroke-opacity:1;stroke-miterlimit:10;" d="M 21.493278 13.969252 L 22.31359 13.938392 " transform="matrix(20,0,0,20,-355.369459,-205.474879)"/>
<path style="fill:none;stroke-width:0.07;stroke-linecap:butt;stroke-linejoin:miter;stroke:rgb(0%,0%,100%);stroke-opacity:1;stroke-miterlimit:10;" d="M 22.686246 13.931947 L 23.54816 13.935463 " transform="matrix(20,0,0,20,-355.369459,-205.474879)"/>
<path style="fill:none;stroke-width:0.07;stroke-linecap:butt;stroke-linejoin:miter;stroke:rgb(0%,0%,100%);stroke-opacity:1;stroke-miterlimit:10;" d="M 23.845035 14.087221 L 24.39191 14.827846 " transform="matrix(20,0,0,20,-355.369459,-205.474879)"/>
<path style="fill:none;stroke-width:0.07;stroke-linecap:butt;stroke-linejoin:miter;stroke:rgb(0%,0%,100%);stroke-opacity:1;stroke-miterlimit:10;" d="M 24.40402 15.137806 L 23.935465 15.887221 " transform="matrix(20,0,0,20,-355.369459,-205.474879)"/>
<path style="fill:none;stroke-width:0.07;stroke-linecap:butt;stroke-linejoin:miter;stroke:rgb(0%,0%,100%);stroke-opacity:1;stroke-miterlimit:10;" d="M 23.648356 16.046986 L 22.718668 16.050502 " transform="matrix(20,0,0,20,-355.369459,-205.474879)"/>
<path style="fill:none;stroke-width:0.07;stroke-linecap:butt;stroke-linejoin:miter;stroke:rgb(0%,0%,100%);stroke-opacity:1;stroke-miterlimit:10;" d="M 22.344449 16.056556 L 21.560074 16.078431 " transform="matrix(20,0,0,20,-355.369459,-205.474879)"/>
<path style="fill:none;stroke-width:0.07;stroke-linecap:butt;stroke-linejoin:miter;stroke:rgb(0%,0%,100%);stroke-opacity:1;stroke-miterlimit:10;" d="M 21.185856 16.080971 L 20.391129 16.069056 " transform="matrix(20,0,0,20,-355.369459,-205.474879)"/>
<path style="fill:none;stroke-width:0.07;stroke-linecap:butt;stroke-linejoin:miter;stroke:rgb(0%,0%,100%);stroke-opacity:1;stroke-miterlimit:10;" d="M 19.67941 15.185072 L 20.107535 15.904799 " transform="matrix(20,0,0,20,-355.369459,-205.474879)"/>
<path style="fill:none;stroke-width:0.07;stroke-linecap:butt;stroke-linejoin:miter;stroke:rgb(0%,0%,100%);stroke-opacity:1;stroke-miterlimit:10;" d="M 18.313395 13.019056 L 18.718668 12.275892 " transform="matrix(20,0,0,20,-355.369459,-205.474879)"/>
<path style="fill:none;stroke-width:0.07;stroke-linecap:butt;stroke-linejoin:miter;stroke:rgb(0%,0%,100%);stroke-opacity:1;stroke-miterlimit:10;" d="M 18.953629 11.992689 L 19.820817 11.284877 " transform="matrix(20,0,0,20,-355.369459,-205.474879)"/>
<path style="fill:none;stroke-width:0.07;stroke-linecap:butt;stroke-linejoin:miter;stroke:rgb(0%,0%,100%);stroke-opacity:1;stroke-miterlimit:10;" d="M 24.030387 11.027455 L 24.924137 11.707533 " transform="matrix(20,0,0,20,-355.369459,-205.474879)"/>
<path style="fill:none;stroke-width:0.07;stroke-linecap:butt;stroke-linejoin:miter;stroke:rgb(0%,0%,100%);stroke-opacity:1;stroke-miterlimit:10;" d="M 25.18859 11.967885 L 25.673356 12.584681 " transform="matrix(20,0,0,20,-355.369459,-205.474879)"/>
<path style="fill:none;stroke-width:0.07;stroke-linecap:butt;stroke-linejoin:miter;stroke:rgb(0%,0%,100%);stroke-opacity:1;stroke-miterlimit:10;" d="M 25.884098 12.890541 L 26.363004 13.689369 " transform="matrix(20,0,0,20,-355.369459,-205.474879)"/>
<path style="fill:none;stroke-width:0.07;stroke-linecap:butt;stroke-linejoin:miter;stroke:rgb(0%,0%,100%);stroke-opacity:1;stroke-miterlimit:10;" d="M 27.457145 13.819252 L 26.64484 13.843275 " transform="matrix(20,0,0,20,-355.369459,-205.474879)"/>
<path style="fill:none;stroke-width:0.07;stroke-linecap:butt;stroke-linejoin:miter;stroke:rgb(0%,0%,100%);stroke-opacity:1;stroke-miterlimit:10;" d="M 29.046403 11.795228 L 27.750504 13.659681 " transform="matrix(20,0,0,20,-355.369459,-205.474879)"/>
<path style="fill:none;stroke-width:0.07;stroke-linecap:butt;stroke-linejoin:miter;stroke:rgb(0%,0%,100%);stroke-opacity:1;stroke-miterlimit:10;" d="M 29.292887 11.76476 L 30.194059 12.562806 " transform="matrix(20,0,0,20,-355.369459,-205.474879)"/>
<path style="fill:none;stroke-width:0.07;stroke-linecap:butt;stroke-linejoin:miter;stroke:rgb(0%,0%,100%);stroke-opacity:1;stroke-miterlimit:10;" d="M 30.248356 12.85265 L 29.278629 14.747377 " transform="matrix(20,0,0,20,-355.369459,-205.474879)"/>
<path style="fill:none;stroke-width:0.07;stroke-linecap:butt;stroke-linejoin:miter;stroke:rgb(0%,0%,100%);stroke-opacity:1;stroke-miterlimit:10;" d="M 29.108707 15.080775 L 28.750699 15.786635 " transform="matrix(20,0,0,20,-355.369459,-205.474879)"/>
<path style="fill:none;stroke-width:0.07;stroke-linecap:butt;stroke-linejoin:miter;stroke:rgb(0%,0%,100%);stroke-opacity:1;stroke-miterlimit:10;" d="M 28.568864 16.112806 L 28.095621 16.887221 " transform="matrix(20,0,0,20,-355.369459,-205.474879)"/>
</g>
</svg>
